<?xml version="1.0" standalone="no"?>
<!DOCTYPE svg PUBLIC "-//W3C//DTD SVG 20010904//EN"
 "http://www.w3.org/TR/2001/REC-SVG-20010904/DTD/svg10.dtd">
<svg version="1.0" xmlns="http://www.w3.org/2000/svg"
 width="113.000000pt" height="113.000000pt" viewBox="0 0 113.000000 113.000000"
 preserveAspectRatio="xMidYMid meet">
<metadata>
Created by potrace 1.11, written by Peter Selinger 2001-2013
</metadata>
<g transform="translate(0.000000,113.000000) scale(0.100000,-0.100000)"
fill="#000000" stroke="none">
<path d="M683 978 c-12 -13 -49 -51 -84 -84 -85 -82 -98 -108 -95 -189 2 -52
9 -79 37 -133 18 -37 37 -69 40 -72 3 -3 9 -25 13 -50 5 -35 2 -53 -15 -84
-24 -45 -122 -146 -141 -146 -18 0 -136 125 -149 158 -14 35 -12 107 4 134 21
36 100 119 111 115 5 -2 11 -18 12 -35 2 -26 -6 -41 -42 -77 -24 -25 -44 -52
-44 -60 0 -20 29 -19 51 1 16 15 39 12 39 -4 0 -4 -16 -25 -35 -47 -19 -22
-35 -45 -35 -52 0 -20 35 -15 55 7 10 11 24 20 32 20 8 0 23 -9 35 -20 12 -11
30 -20 40 -20 29 0 21 34 -17 69 -19 17 -35 36 -35 41 0 15 21 12 41 -6 20
-18 49 -13 49 8 0 7 -11 26 -25 42 -14 16 -25 33 -25 38 0 4 -6 8 -14 8 -20 0
-22 16 -21 227 1 198 -2 211 -39 197 -10 -4 -14 -31 -14 -119 1 -130 2 -128
-92 -223 -70 -72 -90 -111 -90 -179 1 -72 28 -119 124 -216 l86 -87 85 85
c109 109 125 138 121 222 -2 36 -8 68 -12 72 -12 7 -38 63 -36 74 1 4 -2 7 -7
7 -13 0 -41 75 -41 110 0 50 18 81 91 153 l71 71 71 -73 c86 -89 104 -137 79
-211 -17 -48 -106 -145 -123 -134 -23 14 -1 75 40 115 54 54 55 74 1 65 -49
-8 -52 5 -9 45 49 46 19 88 -32 43 -20 -18 -56 -18 -66 0 -4 8 -17 16 -28 18
-33 5 -28 -28 9 -66 20 -19 36 -40 36 -45 0 -20 -18 -20 -40 -1 -23 20 -50 17
-50 -6 0 -8 20 -34 44 -58 l43 -44 2 -198 c1 -110 5 -202 9 -206 4 -4 14 -3
21 2 11 6 15 36 15 127 l1 119 76 75 c41 41 81 91 88 110 7 19 17 42 22 51 11
22 12 88 1 88 -4 0 -14 16 -21 35 -10 29 -179 215 -194 215 -2 0 -13 -10 -24
-22z"/>
</g>
</svg>
