<?xml version="1.0" standalone="no"?>
<!DOCTYPE svg PUBLIC "-//W3C//DTD SVG 20010904//EN"
 "http://www.w3.org/TR/2001/REC-SVG-20010904/DTD/svg10.dtd">
<svg version="1.0" xmlns="http://www.w3.org/2000/svg"
 width="400.000000pt" height="400.000000pt" viewBox="0 0 400.000000 400.000000"
 preserveAspectRatio="xMidYMid meet">
<metadata>
Created by potrace 1.11, written by Peter Selinger 2001-2013
</metadata>
<g transform="translate(0.000000,400.000000) scale(0.100000,-0.100000)"
fill="#000000" stroke="none">
<path d="M2664 2176 c-10 -26 4 -48 28 -44 17 2 23 10 23 28 0 18 -6 26 -23
28 -13 2 -25 -3 -28 -12z"/>
<path d="M773 2160 c-71 -43 -52 -109 45 -155 35 -17 67 -37 72 -45 41 -64
-46 -116 -124 -75 -24 13 -31 13 -38 3 -14 -23 -2 -33 49 -42 124 -21 202 40
162 127 -9 21 -101 77 -125 77 -12 0 -33 34 -34 53 0 10 7 25 16 34 15 15 24
15 119 1 11 -2 21 4 23 13 2 12 -7 18 -35 23 -64 10 -97 7 -130 -14z"/>
<path d="M1510 2010 l0 -170 25 0 c25 0 25 1 25 80 l0 80 65 0 c51 0 65 3 65
15 0 12 -14 15 -65 15 l-65 0 0 60 0 60 75 0 c60 0 75 3 75 15 0 12 -18 15
-100 15 l-100 0 0 -170z"/>
<path d="M1790 2078 c-35 -12 -62 -53 -67 -103 -11 -97 77 -164 160 -120 25
13 30 13 44 0 8 -8 21 -15 29 -15 16 0 19 26 4 35 -6 3 -10 51 -10 109 l0 102
-67 1 c-38 0 -79 -4 -93 -9z m105 -35 c25 -24 17 -137 -10 -158 -53 -39 -115
4 -115 80 0 35 6 52 25 70 28 29 76 33 100 8z"/>
<path d="M2040 1965 c0 -118 1 -125 20 -125 18 0 20 7 20 70 0 98 24 140 80
140 10 0 20 9 23 20 8 30 -47 27 -78 -5 l-25 -24 0 24 c0 18 -5 25 -20 25 -19
0 -20 -7 -20 -125z"/>
<path d="M2230 1965 c0 -118 1 -125 20 -125 18 0 20 7 20 82 0 75 2 84 27 110
31 33 53 35 76 10 13 -15 17 -39 17 -110 0 -85 1 -92 20 -92 18 0 20 7 20 83
0 78 2 85 28 110 33 32 53 34 75 9 13 -15 17 -39 17 -110 0 -85 1 -92 20 -92
19 0 20 7 20 93 0 113 -5 131 -36 146 -37 16 -68 13 -98 -10 l-26 -20 -26 20
c-15 12 -39 21 -54 21 -15 0 -39 -9 -54 -21 l-26 -20 0 20 c0 14 -6 21 -20 21
-19 0 -20 -7 -20 -125z"/>
<path d="M2670 1965 c0 -118 1 -125 20 -125 19 0 20 7 20 125 0 118 -1 125
-20 125 -19 0 -20 -7 -20 -125z"/>
<path d="M2790 1965 c0 -118 1 -125 20 -125 18 0 20 7 20 83 0 79 2 85 29 111
35 33 70 32 88 -4 7 -14 13 -61 13 -107 0 -77 1 -83 21 -83 20 0 21 4 17 106
-3 97 -5 107 -27 125 -31 25 -82 24 -115 -2 l-26 -20 0 20 c0 14 -6 21 -20 21
-19 0 -20 -7 -20 -125z"/>
<path d="M3113 2074 c-55 -27 -79 -114 -48 -174 26 -50 99 -75 146 -50 17 10
19 7 19 -20 0 -43 -33 -73 -73 -68 -18 3 -39 8 -48 12 -11 5 -19 1 -23 -9 -15
-40 118 -45 158 -6 19 20 21 35 26 174 l5 153 -66 1 c-39 1 -78 -5 -96 -13z
m98 -24 c16 -9 19 -22 19 -82 0 -56 -4 -74 -17 -84 -51 -38 -113 7 -113 81 0
73 55 115 111 85z"/>
</g>
</svg>
