<?xml version="1.0" standalone="no"?>
<!DOCTYPE svg PUBLIC "-//W3C//DTD SVG 20010904//EN"
 "http://www.w3.org/TR/2001/REC-SVG-20010904/DTD/svg10.dtd">
<svg version="1.0" xmlns="http://www.w3.org/2000/svg"
 width="113.000000pt" height="113.000000pt" viewBox="0 0 113.000000 113.000000"
 preserveAspectRatio="xMidYMid meet">
<metadata>
Created by potrace 1.11, written by Peter Selinger 2001-2013
</metadata>
<g transform="translate(0.000000,113.000000) scale(0.100000,-0.100000)"
fill="#000000" stroke="none">
<path d="M617 902 c-47 -49 -91 -101 -97 -116 -12 -33 -13 -133 -1 -140 5 -3
12 -18 16 -33 3 -16 17 -45 30 -65 14 -20 29 -57 36 -82 17 -68 0 -105 -88
-192 l-75 -74 -64 62 c-132 129 -137 217 -20 334 30 30 58 54 62 54 5 0 7 -24
5 -52 -3 -48 -8 -57 -47 -96 -25 -23 -42 -47 -39 -52 10 -17 24 -11 51 20 15
16 30 27 34 25 15 -9 -6 -63 -38 -101 -45 -52 -26 -71 23 -24 l36 35 25 -33
c14 -17 32 -32 39 -32 28 0 25 21 -9 56 -25 26 -36 46 -36 66 l0 30 31 -26
c33 -28 44 -31 54 -17 3 5 -15 30 -40 54 l-45 45 0 206 c0 199 -1 206 -20 206
-19 0 -20 -7 -20 -121 l0 -121 -74 -79 c-78 -83 -116 -147 -116 -195 0 -53 45
-126 128 -206 43 -43 83 -78 89 -78 15 0 158 151 177 187 32 63 18 149 -41
248 -64 108 -53 164 52 273 l74 77 67 -65 c132 -130 137 -212 20 -333 -31 -31
-58 -57 -61 -57 -3 0 -5 23 -5 52 0 49 3 55 47 100 41 41 44 48 28 54 -13 5
-25 0 -41 -19 -29 -34 -34 -34 -34 2 0 19 10 40 30 59 17 17 30 38 30 46 0 24
-28 19 -46 -9 -9 -14 -21 -25 -28 -25 -6 0 -23 11 -38 25 -29 27 -43 31 -53
15 -4 -6 9 -26 29 -45 26 -24 36 -42 36 -64 0 -37 -2 -38 -34 -6 -14 14 -30
25 -36 25 -22 0 -8 -30 30 -66 l40 -38 2 -205 c3 -175 5 -206 18 -206 12 0 16
23 20 125 l5 126 63 59 c64 60 89 98 111 167 10 30 9 46 -4 93 -14 47 -30 70
-103 146 -47 49 -89 89 -92 89 -4 0 -45 -40 -93 -88z"/>
</g>
</svg>
